<mxfile host="app.diagrams.net" agent="Mozilla/5.0 (Windows NT 10.0; Win64; x64) AppleWebKit/537.36 (KHTML, like Gecko) Chrome/139.0.0.0 Safari/537.36 Edg/139.0.0.0" version="28.0.7">
  <diagram name="第 1 页" id="lylbNxmO-0R8MRGOri80">
    <mxGraphModel dx="2011" dy="1118" grid="1" gridSize="10" guides="1" tooltips="1" connect="1" arrows="1" fold="1" page="1" pageScale="1" pageWidth="827" pageHeight="1169" math="0" shadow="0">
      <root>
        <mxCell id="0" />
        <mxCell id="1" parent="0" />
        <mxCell id="33dikjmMXrmvQSc9ritD-1" value="&lt;font style=&quot;font-size: 20px;&quot;&gt;用户服务层&lt;/font&gt;" style="rounded=0;whiteSpace=wrap;html=1;" vertex="1" parent="1">
          <mxGeometry x="60" y="130" width="120" height="60" as="geometry" />
        </mxCell>
        <mxCell id="33dikjmMXrmvQSc9ritD-2" value="&lt;font style=&quot;font-size: 20px;&quot;&gt;应用层&lt;/font&gt;" style="rounded=0;whiteSpace=wrap;html=1;" vertex="1" parent="1">
          <mxGeometry x="60" y="200" width="120" height="510" as="geometry" />
        </mxCell>
        <mxCell id="33dikjmMXrmvQSc9ritD-3" value="&lt;font style=&quot;font-size: 20px;&quot;&gt;支撑层&lt;/font&gt;" style="rounded=0;whiteSpace=wrap;html=1;" vertex="1" parent="1">
          <mxGeometry x="60" y="720" width="120" height="60" as="geometry" />
        </mxCell>
        <mxCell id="33dikjmMXrmvQSc9ritD-4" value="&lt;font style=&quot;font-size: 20px;&quot;&gt;计算资源层&lt;/font&gt;" style="rounded=0;whiteSpace=wrap;html=1;" vertex="1" parent="1">
          <mxGeometry x="60" y="790" width="120" height="60" as="geometry" />
        </mxCell>
        <mxCell id="33dikjmMXrmvQSc9ritD-5" value="&lt;font style=&quot;font-size: 20px;&quot;&gt;用户&lt;/font&gt;" style="rounded=0;whiteSpace=wrap;html=1;align=left;" vertex="1" parent="1">
          <mxGeometry x="190" y="130" width="580" height="60" as="geometry" />
        </mxCell>
        <mxCell id="33dikjmMXrmvQSc9ritD-6" value="&lt;font style=&quot;font-size: 20px;&quot;&gt;安全管理员&lt;/font&gt;" style="rounded=0;whiteSpace=wrap;html=1;" vertex="1" parent="1">
          <mxGeometry x="280" y="140" width="110" height="40" as="geometry" />
        </mxCell>
        <mxCell id="33dikjmMXrmvQSc9ritD-7" value="&lt;font style=&quot;font-size: 20px;&quot;&gt;系统管理员&lt;/font&gt;" style="rounded=0;whiteSpace=wrap;html=1;" vertex="1" parent="1">
          <mxGeometry x="430" y="140" width="110" height="40" as="geometry" />
        </mxCell>
        <mxCell id="33dikjmMXrmvQSc9ritD-8" value="&lt;font style=&quot;font-size: 20px;&quot;&gt;审计管理员&lt;/font&gt;" style="rounded=0;whiteSpace=wrap;html=1;" vertex="1" parent="1">
          <mxGeometry x="580" y="140" width="110" height="40" as="geometry" />
        </mxCell>
        <mxCell id="33dikjmMXrmvQSc9ritD-9" value="" style="rounded=0;whiteSpace=wrap;html=1;" vertex="1" parent="1">
          <mxGeometry x="190" y="200" width="580" height="510" as="geometry" />
        </mxCell>
        <mxCell id="33dikjmMXrmvQSc9ritD-13" value="" style="rounded=0;whiteSpace=wrap;html=1;dashed=1;" vertex="1" parent="1">
          <mxGeometry x="270" y="220" width="150" height="230" as="geometry" />
        </mxCell>
        <mxCell id="33dikjmMXrmvQSc9ritD-10" value="&lt;span style=&quot;font-size: 20px;&quot;&gt;告警分类&lt;/span&gt;" style="rounded=0;whiteSpace=wrap;html=1;" vertex="1" parent="1">
          <mxGeometry x="290" y="300" width="110" height="40" as="geometry" />
        </mxCell>
        <mxCell id="33dikjmMXrmvQSc9ritD-11" value="&lt;span style=&quot;font-size: 20px;&quot;&gt;部门统计&lt;/span&gt;" style="rounded=0;whiteSpace=wrap;html=1;" vertex="1" parent="1">
          <mxGeometry x="290" y="360" width="110" height="40" as="geometry" />
        </mxCell>
        <mxCell id="33dikjmMXrmvQSc9ritD-12" value="&lt;font style=&quot;font-size: 20px;&quot;&gt;保密柜安全监管系统&lt;/font&gt;" style="rounded=0;whiteSpace=wrap;html=1;align=center;" vertex="1" parent="1">
          <mxGeometry x="60" y="60" width="710" height="60" as="geometry" />
        </mxCell>
        <mxCell id="33dikjmMXrmvQSc9ritD-14" value="&lt;font style=&quot;font-size: 20px;&quot;&gt;统计分析模块&lt;/font&gt;" style="text;strokeColor=none;align=center;fillColor=none;html=1;verticalAlign=middle;whiteSpace=wrap;rounded=0;" vertex="1" parent="1">
          <mxGeometry x="270" y="240" width="150" height="30" as="geometry" />
        </mxCell>
        <mxCell id="33dikjmMXrmvQSc9ritD-15" value="" style="rounded=0;whiteSpace=wrap;html=1;dashed=1;" vertex="1" parent="1">
          <mxGeometry x="520" y="220" width="150" height="230" as="geometry" />
        </mxCell>
        <mxCell id="33dikjmMXrmvQSc9ritD-16" value="&lt;span style=&quot;font-size: 20px;&quot;&gt;设备登记&lt;/span&gt;" style="rounded=0;whiteSpace=wrap;html=1;" vertex="1" parent="1">
          <mxGeometry x="540" y="300" width="110" height="40" as="geometry" />
        </mxCell>
        <mxCell id="33dikjmMXrmvQSc9ritD-17" value="&lt;span style=&quot;font-size: 20px;&quot;&gt;远程审批&lt;/span&gt;" style="rounded=0;whiteSpace=wrap;html=1;" vertex="1" parent="1">
          <mxGeometry x="540" y="360" width="110" height="40" as="geometry" />
        </mxCell>
        <mxCell id="33dikjmMXrmvQSc9ritD-18" value="&lt;font style=&quot;font-size: 20px;&quot;&gt;保密柜管理模块&lt;/font&gt;" style="text;strokeColor=none;align=center;fillColor=none;html=1;verticalAlign=middle;whiteSpace=wrap;rounded=0;" vertex="1" parent="1">
          <mxGeometry x="520" y="240" width="150" height="30" as="geometry" />
        </mxCell>
        <mxCell id="33dikjmMXrmvQSc9ritD-19" value="" style="rounded=0;whiteSpace=wrap;html=1;dashed=1;" vertex="1" parent="1">
          <mxGeometry x="270" y="460" width="150" height="230" as="geometry" />
        </mxCell>
        <mxCell id="33dikjmMXrmvQSc9ritD-20" value="&lt;span style=&quot;font-size: 20px;&quot;&gt;保密柜状态&lt;/span&gt;" style="rounded=0;whiteSpace=wrap;html=1;" vertex="1" parent="1">
          <mxGeometry x="290" y="540" width="110" height="40" as="geometry" />
        </mxCell>
        <mxCell id="33dikjmMXrmvQSc9ritD-21" value="&lt;span style=&quot;font-size: 20px;&quot;&gt;保密柜日志&lt;/span&gt;" style="rounded=0;whiteSpace=wrap;html=1;" vertex="1" parent="1">
          <mxGeometry x="290" y="600" width="110" height="40" as="geometry" />
        </mxCell>
        <mxCell id="33dikjmMXrmvQSc9ritD-22" value="&lt;font style=&quot;font-size: 20px;&quot;&gt;保密柜监控模块&lt;/font&gt;" style="text;strokeColor=none;align=center;fillColor=none;html=1;verticalAlign=middle;whiteSpace=wrap;rounded=0;" vertex="1" parent="1">
          <mxGeometry x="270" y="480" width="150" height="30" as="geometry" />
        </mxCell>
        <mxCell id="33dikjmMXrmvQSc9ritD-23" value="" style="rounded=0;whiteSpace=wrap;html=1;dashed=1;" vertex="1" parent="1">
          <mxGeometry x="520" y="460" width="150" height="230" as="geometry" />
        </mxCell>
        <mxCell id="33dikjmMXrmvQSc9ritD-24" value="&lt;span style=&quot;font-size: 20px;&quot;&gt;标签绑定&lt;/span&gt;" style="rounded=0;whiteSpace=wrap;html=1;" vertex="1" parent="1">
          <mxGeometry x="540" y="540" width="110" height="40" as="geometry" />
        </mxCell>
        <mxCell id="33dikjmMXrmvQSc9ritD-25" value="&lt;span style=&quot;font-size: 20px;&quot;&gt;资产监管&lt;/span&gt;" style="rounded=0;whiteSpace=wrap;html=1;" vertex="1" parent="1">
          <mxGeometry x="540" y="600" width="110" height="40" as="geometry" />
        </mxCell>
        <mxCell id="33dikjmMXrmvQSc9ritD-26" value="&lt;span style=&quot;font-size: 20px;&quot;&gt;设备在位监管&lt;/span&gt;" style="text;strokeColor=none;align=center;fillColor=none;html=1;verticalAlign=middle;whiteSpace=wrap;rounded=0;" vertex="1" parent="1">
          <mxGeometry x="520" y="480" width="150" height="30" as="geometry" />
        </mxCell>
        <mxCell id="33dikjmMXrmvQSc9ritD-27" value="&lt;font style=&quot;font-size: 20px;&quot;&gt;统一身份认证平台&lt;/font&gt;" style="rounded=0;whiteSpace=wrap;html=1;align=center;" vertex="1" parent="1">
          <mxGeometry x="190" y="720" width="580" height="60" as="geometry" />
        </mxCell>
        <mxCell id="33dikjmMXrmvQSc9ritD-30" value="" style="rounded=0;whiteSpace=wrap;html=1;align=left;" vertex="1" parent="1">
          <mxGeometry x="190" y="790" width="580" height="60" as="geometry" />
        </mxCell>
        <mxCell id="33dikjmMXrmvQSc9ritD-31" value="&lt;font style=&quot;font-size: 20px;&quot;&gt;服务器资源&lt;/font&gt;" style="rounded=0;whiteSpace=wrap;html=1;" vertex="1" parent="1">
          <mxGeometry x="303.5" y="800" width="110" height="40" as="geometry" />
        </mxCell>
        <mxCell id="33dikjmMXrmvQSc9ritD-32" value="&lt;font style=&quot;font-size: 20px;&quot;&gt;数据库资源&lt;/font&gt;" style="rounded=0;whiteSpace=wrap;html=1;" vertex="1" parent="1">
          <mxGeometry x="530" y="800" width="110" height="40" as="geometry" />
        </mxCell>
        <mxCell id="33dikjmMXrmvQSc9ritD-34" value="" style="rounded=0;whiteSpace=wrap;html=1;" vertex="1" parent="1">
          <mxGeometry x="890" y="60" width="220" height="790" as="geometry" />
        </mxCell>
        <mxCell id="33dikjmMXrmvQSc9ritD-35" value="" style="shape=flexArrow;endArrow=classic;startArrow=classic;html=1;rounded=0;" edge="1" parent="1">
          <mxGeometry width="100" height="100" relative="1" as="geometry">
            <mxPoint x="780" y="480" as="sourcePoint" />
            <mxPoint x="880" y="480" as="targetPoint" />
          </mxGeometry>
        </mxCell>
        <mxCell id="33dikjmMXrmvQSc9ritD-36" value="&lt;font style=&quot;font-size: 20px;&quot;&gt;API接口&lt;/font&gt;" style="text;strokeColor=none;align=center;fillColor=none;html=1;verticalAlign=middle;whiteSpace=wrap;rounded=0;" vertex="1" parent="1">
          <mxGeometry x="750" y="430" width="150" height="30" as="geometry" />
        </mxCell>
        <mxCell id="33dikjmMXrmvQSc9ritD-37" value="&lt;font style=&quot;font-size: 20px;&quot;&gt;加密数据&lt;/font&gt;" style="text;strokeColor=none;align=center;fillColor=none;html=1;verticalAlign=middle;whiteSpace=wrap;rounded=0;" vertex="1" parent="1">
          <mxGeometry x="750" y="500" width="150" height="30" as="geometry" />
        </mxCell>
        <mxCell id="33dikjmMXrmvQSc9ritD-38" value="" style="rounded=0;whiteSpace=wrap;html=1;dashed=1;" vertex="1" parent="1">
          <mxGeometry x="925" y="190" width="150" height="160" as="geometry" />
        </mxCell>
        <mxCell id="33dikjmMXrmvQSc9ritD-41" value="&lt;span style=&quot;font-size: 20px;&quot;&gt;MM库房管理系统&lt;/span&gt;" style="text;strokeColor=none;align=center;fillColor=none;html=1;verticalAlign=middle;whiteSpace=wrap;rounded=0;" vertex="1" parent="1">
          <mxGeometry x="952.5" y="250" width="95" height="30" as="geometry" />
        </mxCell>
        <mxCell id="33dikjmMXrmvQSc9ritD-42" value="" style="rounded=0;whiteSpace=wrap;html=1;dashed=1;" vertex="1" parent="1">
          <mxGeometry x="925" y="400" width="150" height="170" as="geometry" />
        </mxCell>
        <mxCell id="33dikjmMXrmvQSc9ritD-45" value="&lt;span style=&quot;font-size: 20px;&quot;&gt;MM业务综合管理系统&lt;/span&gt;" style="text;strokeColor=none;align=center;fillColor=none;html=1;verticalAlign=middle;whiteSpace=wrap;rounded=0;" vertex="1" parent="1">
          <mxGeometry x="937.5" y="450" width="125" height="70" as="geometry" />
        </mxCell>
        <mxCell id="33dikjmMXrmvQSc9ritD-46" value="" style="rounded=0;whiteSpace=wrap;html=1;dashed=1;" vertex="1" parent="1">
          <mxGeometry x="925" y="620" width="150" height="170" as="geometry" />
        </mxCell>
        <mxCell id="33dikjmMXrmvQSc9ritD-49" value="&lt;span style=&quot;font-size: 20px;&quot;&gt;BM柜重点区域监控系统&lt;/span&gt;" style="text;strokeColor=none;align=center;fillColor=none;html=1;verticalAlign=middle;whiteSpace=wrap;rounded=0;" vertex="1" parent="1">
          <mxGeometry x="925" y="690" width="150" height="30" as="geometry" />
        </mxCell>
        <mxCell id="33dikjmMXrmvQSc9ritD-51" value="&lt;span style=&quot;font-size: 20px;&quot;&gt;业务接口对接&lt;/span&gt;" style="text;strokeColor=none;align=center;fillColor=none;html=1;verticalAlign=middle;whiteSpace=wrap;rounded=0;" vertex="1" parent="1">
          <mxGeometry x="937.5" y="80" width="125" height="70" as="geometry" />
        </mxCell>
      </root>
    </mxGraphModel>
  </diagram>
</mxfile>
